<?xml version="1.0" encoding="UTF-8"?>
<svg version="1.1" xmlns="http://www.w3.org/2000/svg" width="512" height="512">
<path d="M0 0 C1.16411911 -0.00525696 2.32823822 -0.01051392 3.52763367 -0.01593018 C7.34343215 -0.02904294 11.15880727 -0.02042274 14.97460938 -0.01025391 C17.64539093 -0.01227714 20.31616004 -0.01518687 22.98693848 -0.01895142 C28.57157912 -0.02438856 34.15610022 -0.01727135 39.74072266 -0.00292969 C46.17044422 0.01339298 52.59988025 0.00810301 59.0295949 -0.0084089 C64.5790119 -0.02208236 70.12834362 -0.02391499 75.67777205 -0.0160929 C78.97951646 -0.01144836 82.28109953 -0.01190347 85.58283997 -0.02070236 C89.26765921 -0.02836844 92.95193938 -0.01663982 96.63671875 0 C97.71132858 -0.00607269 98.78593842 -0.01214539 99.89311218 -0.0184021 C114.65444132 0.10434291 126.19249066 5.22430917 136.81835938 15.38818359 C136.81835938 16.04818359 136.81835938 16.70818359 136.81835938 17.38818359 C137.64787109 17.69949219 137.64787109 17.69949219 138.49414062 18.01708984 C141.66668468 19.88862424 143.71180587 22.50671954 146.00585938 25.32568359 C146.48925781 25.90833984 146.97265625 26.49099609 147.47070312 27.09130859 C148.92744738 28.85090231 150.37430573 30.61816761 151.81835938 32.38818359 C152.58792969 33.32791016 153.3575 34.26763672 154.15039062 35.23583984 C155.59361935 37.00151967 157.03373706 38.76974703 158.47070312 40.54052734 C160.23377152 42.67909117 162.01441215 44.79196578 163.82226562 46.89208984 C164.33015625 47.48376953 164.83804688 48.07544922 165.36132812 48.68505859 C166.35842495 49.84363896 167.35960448 50.99872075 168.36523438 52.14990234 C171.81835938 56.16700478 171.81835938 56.16700478 171.81835938 58.38818359 C172.68251056 58.38449642 173.54666174 58.38080925 174.43699932 58.37701035 C195.50480926 58.28851007 216.57258696 58.2224015 237.64054394 58.18093491 C247.82903423 58.16034679 258.01740012 58.13229817 268.20581055 58.08642578 C277.09041011 58.04644289 285.97491953 58.02072355 294.85960656 58.01182961 C299.56003855 58.0066342 304.26021274 57.99450196 308.96056175 57.96526337 C313.39370761 57.93791292 317.82649191 57.92977784 322.25971413 57.93575287 C323.87811886 57.93466134 325.49653694 57.92682511 327.11486816 57.91136169 C341.06646632 57.7847025 355.22927235 59.75343957 366.06835938 69.38818359 C366.93460937 70.37818359 366.93460937 70.37818359 367.81835938 71.38818359 C368.56085938 72.11005859 369.30335938 72.83193359 370.06835938 73.57568359 C393.5931377 97.63511597 395.02200259 128.42300334 398.00585938 160.38818359 C398.09062531 161.29516998 398.17539124 162.20215637 398.26272583 163.1366272 C398.50906787 165.80337707 398.74913846 168.47060514 398.98632812 171.13818359 C399.05594757 171.90337814 399.12556702 172.66857269 399.19729614 173.45695496 C400.47112222 188.16278968 400.98361949 202.85077724 401.02148438 217.60693359 C401.02846422 219.30577621 401.03550518 221.00461857 401.04260254 222.70346069 C401.06186643 228.09837167 401.06677785 233.49324197 401.06835938 238.88818359 C401.06924309 240.2655859 401.06924309 240.2655859 401.07014465 241.67081451 C401.08218781 268.25420533 400.86672206 294.68155806 398.05267334 321.14294434 C397.80519914 323.51428741 397.57476839 325.88683072 397.34814453 328.26025391 C394.09113707 362.27302138 394.09113707 362.27302138 389.81835938 377.38818359 C389.52316406 378.49033203 389.22796875 379.59248047 388.92382812 380.72802734 C386.73222955 388.1235068 383.29719434 394.13800611 378.81835938 400.38818359 C378.20992188 401.25572266 377.60148437 402.12326172 376.97460938 403.01708984 C371.49731733 410.36878306 364.37311489 416.7937485 355.81835938 420.38818359 C354.82835937 420.38818359 353.83835937 420.38818359 352.81835938 420.38818359 C352.81835938 421.04818359 352.81835938 421.70818359 352.81835938 422.38818359 C344.19795986 425.3204858 336.17377615 425.81615302 327.13037109 425.76913452 C325.66853423 425.77259725 324.20669999 425.77736592 322.74487114 425.78331625 C318.75473153 425.79577153 314.7648088 425.78968101 310.77466869 425.7803576 C306.46103172 425.77354487 302.14743095 425.78405932 297.83380127 425.79229736 C289.3940044 425.80561323 280.95428772 425.80276654 272.51448774 425.79405944 C265.65318616 425.78727484 258.791907 425.78636953 251.93060303 425.78963089 C250.46388572 425.79032044 250.46388572 425.79032044 248.96753776 425.79102392 C246.98091967 425.79198313 244.99430159 425.79295577 243.00768352 425.79394169 C224.39415044 425.8024893 205.78066175 425.79267133 187.16713595 425.77654059 C171.20775592 425.76313799 155.24844135 425.76546626 139.2890625 425.77929688 C120.74057246 425.7953638 102.19212129 425.80166538 83.64362526 425.79246008 C81.66445542 425.79150447 79.68528557 425.79056136 77.70611572 425.78963089 C76.24556222 425.78893665 76.24556222 425.78893665 74.75550258 425.78822839 C67.90516847 425.78564184 61.05485909 425.79000226 54.20452881 425.79706955 C45.85236223 425.80549711 37.5002802 425.80317801 29.14812326 425.78722732 C24.88952642 425.77936151 20.63107037 425.77622408 16.37247467 425.78617477 C12.46908098 425.79515733 8.56595774 425.79013067 4.66258836 425.77424212 C3.25560021 425.77090931 1.8485889 425.77255434 0.44161582 425.77986948 C-7.9196433 425.81998414 -15.24124556 425.0891765 -23.18164062 422.38818359 C-23.18164062 421.72818359 -23.18164062 421.06818359 -23.18164062 420.38818359 C-23.88289063 420.28505859 -24.58414063 420.18193359 -25.30664062 420.07568359 C-30.72409205 418.78020608 -34.45726552 416.47298209 -38.18164062 412.38818359 C-39.29539062 411.30537109 -39.29539062 411.30537109 -40.43164062 410.20068359 C-41.33914062 409.27255859 -42.24664062 408.34443359 -43.18164062 407.38818359 C-44.09816406 406.46585937 -44.09816406 406.46585937 -45.03320312 405.52490234 C-68.49062737 380.75422462 -66.85347066 340.13557939 -69.36914062 308.20068359 C-69.45390656 307.1255249 -69.53867249 306.05036621 -69.62600708 304.94262695 C-69.87213324 301.78550977 -70.11224997 298.62800242 -70.34960938 295.47021484 C-70.41922882 294.56455276 -70.48884827 293.65889069 -70.56057739 292.7257843 C-71.83808781 275.30342276 -72.3476587 257.90417544 -72.38476562 240.43896484 C-72.39178649 238.38517739 -72.39887332 236.33139016 -72.40602112 234.27760315 C-72.42542055 227.7519601 -72.4304549 221.22635257 -72.43164062 214.70068359 C-72.43208248 213.58960487 -72.43252434 212.47852615 -72.43297958 211.33377838 C-72.43960884 179.56171796 -72.37958016 147.9041006 -69.44458008 116.24139404 C-69.15830857 113.13500262 -68.88533183 110.02758983 -68.61328125 106.91992188 C-68.02141846 100.21875517 -67.39218257 93.52163388 -66.74414062 86.82568359 C-66.64694733 85.80593445 -66.54975403 84.7861853 -66.44961548 83.73553467 C-64.06870909 59.23240488 -60.22284437 33.83860323 -41.18164062 16.38818359 C-40.25351563 15.36724609 -40.25351563 15.36724609 -39.30664062 14.32568359 C-34.55302539 9.99150499 -29.63650404 6.33307542 -23.18164062 5.38818359 C-23.18164062 4.72818359 -23.18164062 4.06818359 -23.18164062 3.38818359 C-15.32311817 0.83513149 -8.23751522 -0.04655076 0 0 Z " fill="#ABFD77" transform="translate(94.181640625,59.61181640625)"/>
<path d="M0 0 C1.16411911 -0.00525696 2.32823822 -0.01051392 3.52763367 -0.01593018 C7.34343215 -0.02904294 11.15880727 -0.02042274 14.97460938 -0.01025391 C17.64539093 -0.01227714 20.31616004 -0.01518687 22.98693848 -0.01895142 C28.57157912 -0.02438856 34.15610022 -0.01727135 39.74072266 -0.00292969 C46.17044422 0.01339298 52.59988025 0.00810301 59.0295949 -0.0084089 C64.5790119 -0.02208236 70.12834362 -0.02391499 75.67777205 -0.0160929 C78.97951646 -0.01144836 82.28109953 -0.01190347 85.58283997 -0.02070236 C89.26765921 -0.02836844 92.95193938 -0.01663982 96.63671875 0 C97.71132858 -0.00607269 98.78593842 -0.01214539 99.89311218 -0.0184021 C114.65444132 0.10434291 126.19249066 5.22430917 136.81835938 15.38818359 C136.81835938 16.04818359 136.81835938 16.70818359 136.81835938 17.38818359 C137.64787109 17.69949219 137.64787109 17.69949219 138.49414062 18.01708984 C141.66668468 19.88862424 143.71180587 22.50671954 146.00585938 25.32568359 C146.48925781 25.90833984 146.97265625 26.49099609 147.47070312 27.09130859 C148.92744738 28.85090231 150.37430573 30.61816761 151.81835938 32.38818359 C152.58792969 33.32791016 153.3575 34.26763672 154.15039062 35.23583984 C155.59361935 37.00151967 157.03373706 38.76974703 158.47070312 40.54052734 C160.23377152 42.67909117 162.01441215 44.79196578 163.82226562 46.89208984 C164.33015625 47.48376953 164.83804688 48.07544922 165.36132812 48.68505859 C166.35842495 49.84363896 167.35960448 50.99872075 168.36523438 52.14990234 C171.81835938 56.16700478 171.81835938 56.16700478 171.81835938 58.38818359 C169.50835937 58.38818359 167.19835937 58.38818359 164.81835938 58.38818359 C164.82057999 59.23787216 164.8228006 60.08756073 164.8250885 60.96299744 C164.84508951 68.95355084 164.86033253 76.9440959 164.87017155 84.93466854 C164.87539984 89.04312644 164.8824965 93.15156373 164.89379883 97.26000977 C164.90462963 101.22165188 164.91063662 105.18327412 164.91323662 109.14492989 C164.91509052 110.6596667 164.91871047 112.17440238 164.92408943 113.68913078 C164.93130244 115.80360172 164.93235021 117.91798953 164.93188477 120.0324707 C164.93410538 121.23826279 164.93632599 122.44405487 164.93861389 123.68638611 C164.81835938 126.38818359 164.81835938 126.38818359 163.81835938 127.38818359 C160.86191134 127.85703444 157.90762366 128.28768309 154.94335938 128.70068359 C148.26785652 129.67659784 142.1862551 130.94479971 135.94726562 133.61865234 C133.81835938 134.38818359 133.81835938 134.38818359 129.81835938 134.38818359 C128.43746705 132.76070335 127.11622331 131.08261706 125.81835938 129.38818359 C123.27682999 126.90341293 120.56044757 124.64766427 117.81835938 122.38818359 C116.87863281 121.61087891 115.93890625 120.83357422 114.97070312 120.03271484 C97.61146907 106.00281581 97.61146907 106.00281581 76.81835938 101.38818359 C73.92650663 102.08933015 73.92650663 102.08933015 71.81835938 104.38818359 C69.00546065 111.24509726 67.99846039 118.57834792 67.13085938 125.88818359 C67.00420898 126.93917236 66.87755859 127.99016113 66.74707031 129.07299805 C65.51103708 140.02321969 65.38948328 150.72612998 66.19335938 161.70849609 C66.85308515 171.10499539 67.29531232 178.781329 63.82617188 187.69677734 C62.05619657 192.42357186 61.69062549 197.21082691 61.50195312 202.22412109 C61.46384521 203.18366699 61.4257373 204.14321289 61.38647461 205.13183594 C61.34337158 206.33018066 61.30026855 207.52852539 61.25585938 208.76318359 C61.11148438 212.59943359 60.96710938 216.43568359 60.81835938 220.38818359 C51.24835938 220.71818359 41.67835938 221.04818359 31.81835938 221.38818359 C31.15835938 223.03818359 30.49835938 224.68818359 29.81835938 226.38818359 C46.15335938 226.88318359 46.15335938 226.88318359 62.81835938 227.38818359 C65.81835938 235.38818359 65.81835938 235.38818359 65.81835938 237.38818359 C54.59835938 237.71818359 43.37835938 238.04818359 31.81835938 238.38818359 C31.81835938 240.03818359 31.81835938 241.68818359 31.81835938 243.38818359 C32.93283447 243.35563477 34.04730957 243.32308594 35.19555664 243.28955078 C39.35388461 243.18414668 43.50963212 243.15851947 47.66918945 243.15625 C49.46471007 243.14428741 51.26022551 243.11104712 53.05493164 243.05566406 C64.95973682 242.70561986 64.95973682 242.70561986 69.81835938 244.38818359 C73.44310992 247.91205535 74.95549415 251.75538248 76.81835938 256.38818359 C78.58939358 258.99994107 80.60144148 261.34145724 82.69335938 263.70068359 C83.2022168 264.2860791 83.71107422 264.87147461 84.23535156 265.47460938 C88.31268336 270.05873539 92.71496892 273.96014859 97.81835938 277.38818359 C97.2139534 280.63585835 95.91016076 283.36823491 94.44384766 286.31176758 C83.69228489 307.96320983 81.22555145 333.54055255 88.69824219 356.72802734 C93.23574228 369.88261476 99.44298799 381.99420201 108.81835938 392.38818359 C109.30691406 392.96310547 109.79546875 393.53802734 110.29882812 394.13037109 C112.73437 396.14642375 114.90636494 395.80167143 117.94726562 395.67333984 C119.9238263 395.49596375 119.9238263 395.49596375 121.75585938 394.20068359 C123.16989721 391.78850141 123.68738616 390.20410775 123.81835938 387.38818359 C121.91374154 383.00086903 119.47803804 379.48995684 116.50585938 375.76318359 C102.35098992 357.15044941 98.41494178 335.89569524 101.10253906 312.96337891 C102.73358794 303.56626354 106.96607981 295.47077288 111.81835938 287.38818359 C115.90603416 287.90545108 119.44967324 288.93757355 123.27368164 290.45776367 C133.36342229 294.43221793 143.4196024 295.9494104 154.16040039 297.09448242 C157.71747999 297.48753531 161.26726513 297.94429681 164.81835938 298.38818359 C164.81835938 340.29818359 164.81835938 382.20818359 164.81835938 425.38818359 C120.87461773 425.5090927 120.87461773 425.5090927 102.4375 425.53466797 C89.71521368 425.55245773 76.99298704 425.57335321 64.27075195 425.61450195 C55.00455613 425.64445814 45.73840879 425.66377137 36.47216588 425.67044908 C31.56840562 425.6743508 26.66478404 425.68348369 21.76106834 425.70537376 C17.13919403 425.72583724 12.51751468 425.73199756 7.89559937 425.72750664 C6.20541128 425.72832744 4.51521623 425.73423408 2.82506752 425.74580002 C-6.23287303 425.80470955 -14.54084572 425.4963169 -23.18164062 422.38818359 C-23.18164062 421.72818359 -23.18164062 421.06818359 -23.18164062 420.38818359 C-23.88289063 420.28505859 -24.58414063 420.18193359 -25.30664062 420.07568359 C-30.72409205 418.78020608 -34.45726552 416.47298209 -38.18164062 412.38818359 C-39.29539062 411.30537109 -39.29539062 411.30537109 -40.43164062 410.20068359 C-41.33914062 409.27255859 -42.24664062 408.34443359 -43.18164062 407.38818359 C-44.09816406 406.46585937 -44.09816406 406.46585937 -45.03320312 405.52490234 C-68.49062737 380.75422462 -66.85347066 340.13557939 -69.36914062 308.20068359 C-69.45390656 307.1255249 -69.53867249 306.05036621 -69.62600708 304.94262695 C-69.87213324 301.78550977 -70.11224997 298.62800242 -70.34960938 295.47021484 C-70.41922882 294.56455276 -70.48884827 293.65889069 -70.56057739 292.7257843 C-71.83808781 275.30342276 -72.3476587 257.90417544 -72.38476562 240.43896484 C-72.39178649 238.38517739 -72.39887332 236.33139016 -72.40602112 234.27760315 C-72.42542055 227.7519601 -72.4304549 221.22635257 -72.43164062 214.70068359 C-72.43208248 213.58960487 -72.43252434 212.47852615 -72.43297958 211.33377838 C-72.43960884 179.56171796 -72.37958016 147.9041006 -69.44458008 116.24139404 C-69.15830857 113.13500262 -68.88533183 110.02758983 -68.61328125 106.91992188 C-68.02141846 100.21875517 -67.39218257 93.52163388 -66.74414062 86.82568359 C-66.64694733 85.80593445 -66.54975403 84.7861853 -66.44961548 83.73553467 C-64.06870909 59.23240488 -60.22284437 33.83860323 -41.18164062 16.38818359 C-40.25351563 15.36724609 -40.25351563 15.36724609 -39.30664062 14.32568359 C-34.55302539 9.99150499 -29.63650404 6.33307542 -23.18164062 5.38818359 C-23.18164062 4.72818359 -23.18164062 4.06818359 -23.18164062 3.38818359 C-15.32311817 0.83513149 -8.23751522 -0.04655076 0 0 Z " fill="#B9FE8E" transform="translate(94.181640625,59.61181640625)"/>
<path d="M0 0 C12.86686492 4.91892493 23.53996844 15.28429191 33 25 C33.88171875 25.86625 33.88171875 25.86625 34.78125 26.75 C35.4103125 27.36875 36.039375 27.9875 36.6875 28.625 C37.26886719 29.19476563 37.85023438 29.76453125 38.44921875 30.3515625 C40 32 40 32 42 35 C46.39081974 34.39380474 49.62429544 32.73174766 53.5 30.625 C69.07223991 22.59463767 85.87829825 21.78537929 102.55078125 26.7109375 C106.84756834 28.31675827 110.67324474 30.36333472 114.53515625 32.828125 C117.60989762 34.28996717 119.63358464 34.43731512 123 34 C124.79534472 32.71366272 124.79534472 32.71366272 126.125 30.75 C135.05192722 19.69854207 145.25417079 10.92887896 157 3 C158.36318359 2.07380859 158.36318359 2.07380859 159.75390625 1.12890625 C160.49511719 0.75636719 161.23632812 0.38382813 162 0 C162.99 0.33 163.98 0.66 165 1 C165.77881932 6.50587361 166.14834515 11.82637412 166.1328125 17.3828125 C166.13376923 18.15954315 166.13472595 18.9362738 166.13571167 19.73654175 C166.13638793 21.37188804 166.13457256 23.00723709 166.13037109 24.64257812 C166.12505902 27.09772043 166.13031233 29.55267612 166.13671875 32.0078125 C166.13836961 40.44475967 165.91998113 48.72647333 165.03735352 57.125 C164.98825476 60.90399975 166.02239413 63.51156822 167.89453125 66.7421875 C173.69864805 78.59653207 172.79938187 95.97211075 168.875 108.25 C167.97454256 110.52378081 167.01970899 112.7771423 166 115 C165.33097656 116.46953125 165.33097656 116.46953125 164.6484375 117.96875 C154.8318812 137.4921804 137.01709884 151.02291159 116.62133789 157.99951172 C90.35889888 166.44919122 60.93310911 165.2080125 35.96484375 153.09765625 C16.74966079 143.21962207 3.08842604 127.67154307 -4.328125 107.36328125 C-8.81934959 92.48214624 -8.07604672 78.57974003 -3 64 C-2.64043213 63.42507812 -2.28086426 62.85015625 -1.91040039 62.2578125 C-0.58900934 58.98073435 -1.05201759 56.30452643 -1.36328125 52.80078125 C-1.9822082 44.95588076 -2.1862164 37.16563165 -2.18530273 29.2980957 C-2.18751766 27.17054008 -2.20586839 25.04348243 -2.22460938 22.91601562 C-2.25556168 15.07487808 -1.79484438 7.65224021 0 0 Z " fill="#ABFD77" transform="translate(178,179)"/>
<path d="M0 0 C1.30848102 0.65015827 2.60777704 1.31905302 3.8984375 2.00390625 C4.59283936 2.36371582 5.28724121 2.72352539 6.00268555 3.09423828 C16.33714669 8.57773339 25.37384999 15.32066889 33.8828125 23.33203125 C35.85427363 25.17463871 37.85012309 26.88959107 39.9609375 28.56640625 C40.7240625 29.22640625 41.4871875 29.88640625 42.2734375 30.56640625 C42.2734375 31.22640625 42.2734375 31.88640625 42.2734375 32.56640625 C43.24023438 32.22867188 44.20703125 31.8909375 45.203125 31.54296875 C46.51811507 31.09211501 47.83322588 30.6416133 49.1484375 30.19140625 C50.09589844 29.85882813 50.09589844 29.85882813 51.0625 29.51953125 C59.92732436 26.50549097 68.54146291 25.17636691 77.8984375 25.19140625 C78.84904053 25.19156738 79.79964355 25.19172852 80.77905273 25.19189453 C90.15902348 25.34169654 99.29216893 26.83873385 107.89453125 30.76171875 C110.8563736 31.76358989 112.33695977 31.60838222 115.2734375 30.56640625 C117.22140187 28.9527096 117.22140187 28.9527096 119.0234375 26.81640625 C129.59541523 15.80612099 147.79220923 -0.50905832 163.6484375 -1.68359375 C168.24477285 -1.3666051 170.64414605 -0.12904932 173.8125 3.16796875 C175.83611287 6.49015673 176.31238815 9.90872406 176.8984375 13.69140625 C177.01960937 14.40039062 177.14078125 15.109375 177.265625 15.83984375 C178.91836196 25.82812365 179.43619873 35.63389585 179.3984375 45.75390625 C179.39880005 47.53812988 179.39880005 47.53812988 179.39916992 49.35839844 C179.3732108 56.82037385 179.0856346 64.13712145 178.19921875 71.55078125 C178.29461343 75.42681791 179.68359465 78.0465859 181.2734375 81.56640625 C181.93479659 84.19279112 182.50202834 86.72069065 182.9609375 89.37890625 C183.08758789 90.10086182 183.21423828 90.82281738 183.34472656 91.56665039 C186.5905977 111.93208584 186.5905977 111.93208584 183.2734375 118.56640625 C184.57547119 118.5506958 184.57547119 118.5506958 185.90380859 118.53466797 C189.12043278 118.50060909 192.33696517 118.47551858 195.55371094 118.45654297 C196.94664531 118.44647748 198.33955852 118.43282391 199.73242188 118.41552734 C201.7329811 118.39130405 203.73369365 118.38099811 205.734375 118.37109375 C207.54107666 118.3553833 207.54107666 118.3553833 209.38427734 118.33935547 C212.2734375 118.56640625 212.2734375 118.56640625 214.2734375 120.56640625 C213.9434375 122.21640625 213.6134375 123.86640625 213.2734375 125.56640625 C202.7134375 125.56640625 192.1534375 125.56640625 181.2734375 125.56640625 C180.6134375 128.86640625 179.9534375 132.16640625 179.2734375 135.56640625 C180.26263184 135.55593262 181.25182617 135.54545898 182.27099609 135.53466797 C185.93485914 135.49851606 189.59870636 135.47552343 193.26269531 135.45654297 C194.84963633 135.44647437 196.43655875 135.43281858 198.0234375 135.41552734 C200.30212997 135.39131624 202.58057756 135.37993203 204.859375 135.37109375 C205.57088715 135.36077118 206.28239929 135.35044861 207.01547241 135.33981323 C208.76975415 135.33941203 210.52340459 135.44438416 212.2734375 135.56640625 C212.9334375 136.22640625 213.5934375 136.88640625 214.2734375 137.56640625 C213.73772321 141.10212054 213.73772321 141.10212054 212.2734375 142.56640625 C210.43197048 142.55719357 208.59008856 142.53834609 206.74975586 142.47306824 C203.46169976 142.35778058 200.17403966 142.33325054 196.88427734 142.30004883 C195.15746448 142.26953007 193.43089044 142.21585625 191.70556641 142.13793945 C182.14055637 141.41089094 182.14055637 141.41089094 173.6418457 144.9173584 C171.27486261 147.72242044 169.59962919 150.72874947 168.01367188 154.02514648 C163.84865382 162.50067775 155.76136638 169.89900976 148.2734375 175.56640625 C147.6134375 175.56640625 146.9534375 175.56640625 146.2734375 175.56640625 C146.80453125 176.49839844 147.335625 177.43039062 147.8828125 178.390625 C157.89282601 196.30689268 160.67940357 213.26810296 160.2734375 233.56640625 C161.5728125 233.36015625 162.8721875 233.15390625 164.2109375 232.94140625 C172.37591301 232.08529771 178.53801253 234.02112786 185.1953125 238.79296875 C191.33872667 244.03565678 194.84246895 250.01116885 195.609375 258.1171875 C195.68956433 265.83942029 195.52022077 271.98120434 191.2734375 278.56640625 C190.72429687 279.48292969 190.72429687 279.48292969 190.1640625 280.41796875 C184.03172527 289.01081165 172.27592598 292.83876165 162.2734375 294.56640625 C159.33820325 294.84404228 156.42385277 294.91634691 153.4765625 294.9375 C152.67990173 294.94652847 151.88324097 294.95555695 151.06243896 294.96485901 C149.39534197 294.97924323 147.72819004 294.98821842 146.06103516 294.99194336 C143.51500097 295.00394602 140.9713135 295.05332962 138.42578125 295.10351562 C136.7968867 295.11297059 135.16797745 295.12021005 133.5390625 295.125 C132.78377258 295.14453232 132.02848267 295.16406464 131.25030518 295.18418884 C127.2527486 295.15003354 125.46929195 294.72133925 122.29614258 292.21118164 C120.2734375 289.56640625 120.2734375 289.56640625 119.64453125 286.69140625 C120.50923973 282.39471817 122.61045214 279.91660166 125.3359375 276.56640625 C130.71003835 269.58482334 134.83309682 262.72786661 138.2734375 254.56640625 C138.7065625 253.57511719 139.1396875 252.58382812 139.5859375 251.5625 C142.56624664 243.2942118 142.65236253 235.15940875 142.7109375 226.44140625 C142.72116943 225.26175293 142.73140137 224.08209961 142.74194336 222.86669922 C142.63333083 211.9917743 140.68714855 202.44133277 135.5859375 192.81640625 C135.26560547 192.2028125 134.94527344 191.58921875 134.61523438 190.95703125 C133.84601455 189.48747696 133.0615006 188.0259423 132.2734375 186.56640625 C127.81655753 187.17050143 123.96435826 188.32574754 119.7734375 189.94140625 C90.92215116 200.48263653 58.58062977 198.80786867 30.2734375 187.56640625 C28.27820605 186.88560092 26.27984461 186.21353447 24.2734375 185.56640625 C23.85384766 186.64728516 23.85384766 186.64728516 23.42578125 187.75 C21.97267743 191.30148426 20.28213282 194.72112957 18.58984375 198.1640625 C15.04405815 207.32839263 13.74157825 216.15163425 13.8359375 225.94140625 C13.84206055 227.03267822 13.84818359 228.1239502 13.85449219 229.24829102 C14.01706296 237.65632633 15.1752511 244.70260673 18.2734375 252.56640625 C18.5621875 253.43652344 18.8509375 254.30664062 19.1484375 255.203125 C22.51713528 264.78285932 28.82810898 272.99945855 35.14453125 280.84765625 C36.43110797 282.80645817 36.97552973 284.2418229 37.2734375 286.56640625 C34.8919942 293.2571279 34.8919942 293.2571279 32.2734375 294.56640625 C25.735777 295.45286869 25.735777 295.45286869 22.5078125 293.49609375 C5.51961465 277.69865744 -2.67557944 252.04158217 -3.94921875 229.65234375 C-4.33165949 212.79169533 -1.2457698 196.46848231 7.46484375 181.82421875 C9.51612544 178.75028203 9.51612544 178.75028203 9.2734375 175.56640625 C7.15116936 173.61010653 7.15116936 173.61010653 4.3984375 171.62890625 C-4.79644708 164.33926802 -12.53807804 155.15428918 -17.7265625 144.56640625 C-17.7265625 143.90640625 -17.7265625 143.24640625 -17.7265625 142.56640625 C-18.8724585 142.57164307 -20.01835449 142.57687988 -21.19897461 142.58227539 C-25.43496932 142.60032342 -29.67096062 142.61183753 -33.90698242 142.62133789 C-35.74325125 142.62637856 -37.57951604 142.63321102 -39.41577148 142.6418457 C-42.04932651 142.65392297 -44.68282866 142.65963706 -47.31640625 142.6640625 C-48.55546974 142.67180443 -48.55546974 142.67180443 -49.81956482 142.67970276 C-51.78892618 142.6798983 -53.75817864 142.62844777 -55.7265625 142.56640625 C-56.7265625 141.56640625 -56.7265625 141.56640625 -56.8515625 139.06640625 C-56.7265625 136.56640625 -56.7265625 136.56640625 -55.7265625 135.56640625 C-53.20562174 135.47792882 -50.71225357 135.45113324 -48.19140625 135.46875 C-47.06153038 135.47087242 -47.06153038 135.47087242 -45.90882874 135.47303772 C-43.4938669 135.47865249 -41.07899649 135.49120742 -38.6640625 135.50390625 C-37.03060029 135.50891935 -35.39713664 135.51348259 -33.76367188 135.51757812 C-29.75126665 135.52862671 -25.73893009 135.54590119 -21.7265625 135.56640625 C-22.7165625 132.59640625 -23.7065625 129.62640625 -24.7265625 126.56640625 C-25.6551709 126.5413501 -26.5837793 126.51629395 -27.54052734 126.49047852 C-30.98092054 126.39542693 -34.42113963 126.29618918 -37.86132812 126.1940918 C-39.35118891 126.15074036 -40.84109945 126.10906541 -42.33105469 126.0690918 C-44.47085577 126.0113941 -46.61040635 125.9476987 -48.75 125.8828125 C-50.03825684 125.84615479 -51.32651367 125.80949707 -52.65380859 125.77172852 C-55.7265625 125.56640625 -55.7265625 125.56640625 -57.7265625 124.56640625 C-56.8515625 119.69140625 -56.8515625 119.69140625 -55.7265625 118.56640625 C-53.58097423 118.4786502 -51.43251829 118.45945406 -49.28515625 118.46875 C-47.97998047 118.47197266 -46.67480469 118.47519531 -45.33007812 118.47851562 C-43.9414056 118.48687224 -42.55273373 118.4953372 -41.1640625 118.50390625 C-39.77148594 118.50891959 -38.37890769 118.51348278 -36.98632812 118.51757812 C-33.5663638 118.52941191 -30.14648406 118.54589745 -26.7265625 118.56640625 C-26.74750977 117.92316406 -26.76845703 117.27992188 -26.79003906 116.6171875 C-27.20421857 101.91643622 -26.38689593 89.54740655 -21.7265625 75.56640625 C-21.67993793 73.53428802 -21.67993793 73.53428802 -21.84765625 71.3125 C-21.89631836 70.46776123 -21.94498047 69.62302246 -21.99511719 68.75268555 C-22.05086914 67.84558838 -22.10662109 66.93849121 -22.1640625 66.00390625 C-22.90501372 51.8205017 -23.11711055 38.19888831 -21.4140625 24.06640625 C-21.29643555 23.07535889 -21.17880859 22.08431152 -21.05761719 21.06323242 C-18.89730089 4.63847472 -18.89730089 4.63847472 -13.9765625 -0.05859375 C-8.87203608 -2.21820108 -5.16404438 -1.9865873 0 0 Z M-3.7265625 17.56640625 C-5.68568595 25.91904307 -6.00762382 34.07402639 -5.93237305 42.61645508 C-5.9142385 44.73336083 -5.91186353 46.84982173 -5.91210938 48.96679688 C-5.88796188 57.39891849 -5.5034195 65.72585133 -4.76171875 74.12646484 C-4.7089132 79.29334081 -6.5273845 83.00574929 -8.7265625 87.56640625 C-14.0716277 102.57932161 -10.78416653 120.12169563 -4.29736328 134.13549805 C5.76795786 154.71404434 23.69289396 168.24635931 44.95703125 175.890625 C48.37872038 176.91675028 51.78687224 177.79070672 55.2734375 178.56640625 C56.77003906 178.90285156 56.77003906 178.90285156 58.296875 179.24609375 C84.29293465 184.12453168 112.52551126 179.54836562 134.76953125 165.0390625 C151.27813971 153.684007 162.75408639 137.21522453 167.2734375 117.56640625 C167.71355329 113.84692387 167.79662157 110.18452208 167.7734375 106.44140625 C167.77138306 104.94939697 167.77138306 104.94939697 167.76928711 103.42724609 C167.61650745 95.98477959 166.96713777 83.26010652 161.2734375 77.56640625 C161.36524271 75.60238938 161.52216464 73.64140983 161.703125 71.68359375 C162.34866961 63.49493296 162.42523426 55.3525752 162.40380859 47.14160156 C162.39839883 44.67376699 162.40381598 42.2061107 162.41015625 39.73828125 C162.40949611 38.14192669 162.40821628 36.54557224 162.40625 34.94921875 C162.40928635 33.86303757 162.40928635 33.86303757 162.41238403 32.75491333 C162.39058137 27.94794747 161.94683768 23.32701786 161.2734375 18.56640625 C160.2834375 18.23640625 159.2934375 17.90640625 158.2734375 17.56640625 C145.56023611 24.27615143 125.852646 38.40798926 119.2734375 51.56640625 C114.08118294 51.98210035 111.16163383 50.75950835 106.6484375 48.25390625 C92.15521711 40.64949766 76.33815985 39.30851628 60.48046875 43.4375 C55.52301686 45.18257137 50.97947824 47.53582906 46.3671875 50.04296875 C41.24266827 52.56640625 41.24266827 52.56640625 38.2734375 52.56640625 C35.9921875 50.65234375 35.9921875 50.65234375 33.7734375 47.94140625 C32.99226563 47.01457031 32.21109375 46.08773437 31.40625 45.1328125 C30.35050781 43.86244141 30.35050781 43.86244141 29.2734375 42.56640625 C27.62649265 40.88024843 25.96217629 39.21070454 24.2734375 37.56640625 C23.79237549 37.06052979 23.31131348 36.55465332 22.81567383 36.03344727 C18.43865875 31.48262273 13.76656291 27.78464073 8.5859375 24.19140625 C7.46735352 23.39283203 7.46735352 23.39283203 6.32617188 22.578125 C1.65761602 19.29728766 1.65761602 19.29728766 -3.7265625 17.56640625 Z " fill="#87CF3F" transform="translate(181.7265625,161.43359375)"/>
<path d="M0 0 C1.16411911 -0.00525696 2.32823822 -0.01051392 3.52763367 -0.01593018 C7.34343215 -0.02904294 11.15880727 -0.02042274 14.97460938 -0.01025391 C17.64539093 -0.01227714 20.31616004 -0.01518687 22.98693848 -0.01895142 C28.57157912 -0.02438856 34.15610022 -0.01727135 39.74072266 -0.00292969 C46.17044422 0.01339298 52.59988025 0.00810301 59.0295949 -0.0084089 C64.5790119 -0.02208236 70.12834362 -0.02391499 75.67777205 -0.0160929 C78.97951646 -0.01144836 82.28109953 -0.01190347 85.58283997 -0.02070236 C89.26765921 -0.02836844 92.95193938 -0.01663982 96.63671875 0 C97.71132858 -0.00607269 98.78593842 -0.01214539 99.89311218 -0.0184021 C114.65444132 0.10434291 126.19249066 5.22430917 136.81835938 15.38818359 C136.81835938 16.04818359 136.81835938 16.70818359 136.81835938 17.38818359 C137.64787109 17.69949219 137.64787109 17.69949219 138.49414062 18.01708984 C141.66668468 19.88862424 143.71180587 22.50671954 146.00585938 25.32568359 C146.48925781 25.90833984 146.97265625 26.49099609 147.47070312 27.09130859 C148.92744738 28.85090231 150.37430573 30.61816761 151.81835938 32.38818359 C152.58792969 33.32791016 153.3575 34.26763672 154.15039062 35.23583984 C155.59361935 37.00151967 157.03373706 38.76974703 158.47070312 40.54052734 C160.23377152 42.67909117 162.01441215 44.79196578 163.82226562 46.89208984 C164.33015625 47.48376953 164.83804688 48.07544922 165.36132812 48.68505859 C166.35842495 49.84363896 167.35960448 50.99872075 168.36523438 52.14990234 C171.81835938 56.16700478 171.81835938 56.16700478 171.81835938 58.38818359 C94.59835938 58.38818359 17.37835938 58.38818359 -62.18164062 58.38818359 C-61.41921882 52.28880917 -60.66803491 48.07154863 -58.55664062 42.57568359 C-58.29230225 41.8835376 -58.02796387 41.1913916 -57.75561523 40.47827148 C-53.9731811 30.94759828 -48.72927974 23.30526046 -41.18164062 16.38818359 C-40.56289063 15.70755859 -39.94414063 15.02693359 -39.30664062 14.32568359 C-34.55302539 9.99150499 -29.63650404 6.33307542 -23.18164062 5.38818359 C-23.18164062 4.72818359 -23.18164062 4.06818359 -23.18164062 3.38818359 C-15.32311817 0.83513149 -8.23751522 -0.04655076 0 0 Z " fill="#C1F77E" transform="translate(94.181640625,59.61181640625)"/>
<path d="M0 0 C12.86686492 4.91892493 23.53996844 15.28429191 33 25 C33.88171875 25.86625 33.88171875 25.86625 34.78125 26.75 C35.4103125 27.36875 36.039375 27.9875 36.6875 28.625 C37.26886719 29.19476563 37.85023438 29.76453125 38.44921875 30.3515625 C40 32 40 32 42 35 C47.09133223 34.29874103 51.18997679 31.99352885 55.65234375 29.61523438 C64.81226146 24.85409034 69.97543726 25 81 25 C81 51.73 81 78.46 81 106 C77.37 106.99 73.74 107.98 70 109 C68.73745077 110.0763491 68.73745077 110.0763491 68.5 112.5625 C69.24369721 117.67541831 72.33432747 120.5148638 76 124 C77.485 124.99 77.485 124.99 79 126 C79.39222062 129.07239486 79.52736542 131.10037664 77.9375 133.8125 C75.09072753 135.55729603 72.28153235 135.69042148 69 136 C69 137.65 69 139.3 69 141 C72.96 140.67 76.92 140.34 81 140 C81 147.26 81 154.52 81 162 C55.09878592 162.93337708 33.31953526 154.90811924 14.2421875 137.16796875 C1.59010628 124.93468465 -6.82832934 108.06585087 -7.29150391 90.27612305 C-7.38140051 81.0659022 -6.94960023 70.31511253 -1.91040039 62.2578125 C-0.58900934 58.98073435 -1.05201759 56.30452643 -1.36328125 52.80078125 C-1.9822082 44.95588076 -2.1862164 37.16563165 -2.18530273 29.2980957 C-2.18751766 27.17054008 -2.20586839 25.04348243 -2.22460938 22.91601562 C-2.25556168 15.07487808 -1.79484438 7.65224021 0 0 Z " fill="#B9FE8E" transform="translate(178,179)"/>
<path d="M0 0 C4.32914059 2.79849926 5.72569734 4.93559867 6.87890625 9.91796875 C7.15855225 11.08231445 7.43819824 12.24666016 7.72631836 13.44628906 C8.0022583 14.68088867 8.27819824 15.91548828 8.5625 17.1875 C9.00638062 19.0761377 9.00638062 19.0761377 9.45922852 21.00292969 C10.04840096 23.51565748 10.63017855 26.03013206 11.20410156 28.54638672 C11.88241975 31.48978827 12.59356707 34.41992573 13.3359375 37.34765625 C13.52599365 38.10731689 13.7160498 38.86697754 13.91186523 39.6496582 C14.08532471 40.342771 14.25878418 41.03588379 14.4375 41.75 C15.7597925 47.03917002 16.28600395 51.58308515 16 57 C13.86398066 60.33219018 12.3672811 60.89315459 8.5625 62 C5 62 5 62 2.45825195 60.58813477 C-0.98458354 56.96339556 -1.73440889 53.37183012 -2.89453125 48.58984375 C-3.13161301 47.66716202 -3.36869476 46.74448029 -3.61296082 45.7938385 C-4.10993515 43.84179596 -4.59771596 41.88739284 -5.0769043 39.9309082 C-5.805441 36.96622565 -6.56718234 34.01162782 -7.33398438 31.05664062 C-7.81451902 29.1515498 -8.2930967 27.24596408 -8.76953125 25.33984375 C-8.99445755 24.4685936 -9.21938385 23.59734344 -9.4511261 22.69969177 C-10.93623797 16.53518225 -11.78606542 10.33722512 -11 4 C-7.85256482 0.01942021 -4.96474177 -0.82745696 0 0 Z " fill="#87CF3F" transform="translate(233,395)"/>
<path d="M0 0 C3.5 0.625 3.5 0.625 6.5 2.5 C10.01859805 7.99780945 7.79084532 14.50934874 6.51611328 20.65991211 C6.1244364 22.40895413 5.72558932 24.15640289 5.3203125 25.90234375 C5.10688202 26.83550919 4.89345154 27.76867462 4.67355347 28.7301178 C4.22456373 30.68288453 3.77230626 32.63490261 3.31689453 34.58618164 C2.62181723 37.57619128 1.94528974 40.57002584 1.26953125 43.56445312 C0.82924357 45.46900893 0.38787585 47.37331546 -0.0546875 49.27734375 C-0.25480438 50.17106186 -0.45492126 51.06477997 -0.66110229 51.98558044 C-0.85785553 52.81396927 -1.05460876 53.64235809 -1.25732422 54.49584961 C-1.4252951 55.22291611 -1.59326599 55.9499826 -1.7663269 56.69908142 C-2.63012327 58.96657831 -3.62928089 60.09821843 -5.5 61.625 C-9.68565586 62.48063131 -13.3680751 62.28759019 -17.0625 60.125 C-20.5733643 54.01914905 -17.94352202 45.88387659 -16.48828125 39.39453125 C-16.27817917 38.44108322 -16.06807709 37.48763519 -15.85160828 36.5052948 C-15.4063765 34.5016133 -14.95649324 32.49896029 -14.50219727 30.49731445 C-13.81314329 27.44035394 -13.15319281 24.37800259 -12.49414062 21.31445312 C-12.05645559 19.36158206 -11.61706046 17.4090933 -11.17578125 15.45703125 C-10.98284988 14.54548782 -10.78991852 13.6339444 -10.59114075 12.69477844 C-9.08278079 6.24320916 -7.16019678 1.27860657 0 0 Z " fill="#87CF3E" transform="translate(290.5,394.375)"/>
<path d="M0 0 C4.76506238 2.15052441 7.6885682 4.39535161 9.8359375 9.31640625 C10.5979128 14.57086089 10.63965679 19.52716426 8.1484375 24.31640625 C4.37768028 29.2081994 1.41655665 30.41397905 -4.6015625 31.25390625 C-8.4860829 31.5097416 -9.99220622 31.3976474 -13.6015625 29.69140625 C-18.3687468 25.27304031 -20.97992623 22.12448438 -21.4140625 15.50390625 C-21.32760411 10.78327812 -20.14131029 7.26729074 -16.69921875 3.87109375 C-11.43257362 -0.63581529 -6.73978005 -2.12899189 0 0 Z " fill="#87CF3E" transform="translate(309.1640625,265.68359375)"/>
<path d="M0 0 C4.14804463 2.31162875 6.42648757 4.87232156 7.8125 9.4375 C8.56394279 14.37667082 8.38363561 18.1762422 6.3125 22.75 C2.21453304 27.15531448 -2.10457358 30.6551152 -8.3125 31 C-13.92485997 30.18530259 -16.79998362 28.0125186 -20.5 23.8125 C-23.80848774 19.15610985 -23.80832623 15.04218123 -23.1875 9.4375 C-18.49702346 0.05654692 -9.9745553 -4.35456332 0 0 Z " fill="#87CF3F" transform="translate(224.1875,266.5625)"/>
<path d="M0 0 C2 2 2 2 2.5625 4.625 C1.6260341 10.24379542 -2.5823905 13.84859919 -6.73828125 17.546875 C-8.34800155 19.06525462 -8.34800155 19.06525462 -7.875 22.0625 C-7.25349587 25.29255415 -7.25349587 25.29255415 -4 27 C-2.01200182 27.70164642 -0.01301483 28.37372872 2 29 C1.67 30.32 1.34 31.64 1 33 C-0.258125 33.04125 -1.51625 33.0825 -2.8125 33.125 C-3.52019531 33.14820313 -4.22789062 33.17140625 -4.95703125 33.1953125 C-7 33 -7 33 -10 31 C-12.63434254 31.32126128 -14.62710097 31.81355048 -17 33 C-19.6723621 33.13415472 -22.32250488 33.04318541 -25 33 C-25 31.35 -25 29.7 -25 28 C-24.44570312 27.86464844 -23.89140625 27.72929687 -23.3203125 27.58984375 C-21.01899667 26.90600079 -19.06968946 26.22491825 -17 25 C-15.38864654 21.45136841 -15.38864654 21.45136841 -15 18 C-15.58265625 17.74734375 -16.1653125 17.4946875 -16.765625 17.234375 C-20.72449203 15.0473086 -23.46846768 11.70417671 -26 8 C-26.6875 4.6875 -26.6875 4.6875 -26 2 C-19.73354275 -4.4902593 -7.70153583 -2.94952436 0 0 Z " fill="#88CF40" transform="translate(272,287)"/>
<path d="M0 0 C4.07387357 2.51140399 7.24778591 5.49187638 9 10 C9.41014101 13.95750093 9.06736176 17.56862469 6.6484375 20.8125 C-2.48618717 29.15462299 -12.42400248 28.35517265 -24 28 C-22.46032129 24.24022562 -20.88939998 20.49429868 -19.3125 16.75 C-18.87744141 15.68652344 -18.44238281 14.62304688 -17.99414062 13.52734375 C-17.55908203 12.50253906 -17.12402344 11.47773438 -16.67578125 10.421875 C-16.28302002 9.47924805 -15.89025879 8.53662109 -15.4855957 7.56542969 C-11.88109827 1.34093354 -6.94889372 -0.79741403 0 0 Z " fill="#AAFC76" transform="translate(352,411)"/>
</svg>
