<?xml version="1.0" encoding="UTF-8"?>
<svg version="1.1" xmlns="http://www.w3.org/2000/svg" width="200" height="200">
<path d="M0 0 C1.30534195 -0.00744736 1.30534195 -0.00744736 2.63705444 -0.01504517 C5.51862374 -0.02966164 8.40013799 -0.03646767 11.28173828 -0.04199219 C13.2832947 -0.04774372 15.28485109 -0.05350145 17.28640747 -0.05926514 C21.48456072 -0.06977342 25.68269482 -0.07561733 29.88085938 -0.07910156 C35.26008426 -0.08458829 40.63905628 -0.10862091 46.01820183 -0.13707352 C50.15317525 -0.1556966 54.2880877 -0.16090531 58.42309952 -0.16243744 C60.40623483 -0.16546484 62.38936905 -0.17349632 64.37246323 -0.18662262 C67.14694219 -0.20367738 69.92080238 -0.20180434 72.6953125 -0.1953125 C73.51418945 -0.20452728 74.33306641 -0.21374207 75.17675781 -0.22323608 C79.78271265 -0.18947605 82.72044686 0.21239658 86.47705078 3.16113281 C90.61099608 7.95594691 91.01050311 11.50731976 90.72705078 17.53613281 C90.70900391 18.2721875 90.69095703 19.00824219 90.67236328 19.76660156 C90.62564254 21.56535017 90.55391262 23.36341992 90.47705078 25.16113281 C91.60199951 25.14018555 92.72694824 25.11923828 93.88598633 25.09765625 C98.06977552 25.02511758 102.25350939 24.97928291 106.43774414 24.94140625 C108.24675858 24.92132229 110.05570835 24.8940494 111.86450195 24.859375 C114.46858699 24.81071389 117.07181193 24.7881323 119.67626953 24.77050781 C120.88436531 24.7395401 120.88436531 24.7395401 122.11686707 24.70794678 C126.10671808 24.70636154 128.01068446 24.86462795 131.46459961 27.06054688 C134.55324911 30.28446296 134.60425301 32.09453974 134.61749268 36.45947266 C134.62320282 37.58368118 134.62891296 38.70788971 134.63479614 39.86616516 C134.63647293 41.72533821 134.63647293 41.72533821 134.63818359 43.62207031 C134.6431485 44.92303146 134.6481134 46.22399261 134.65322876 47.56437683 C134.6663658 51.14126153 134.67280123 54.71812744 134.67723942 58.2950325 C134.68017043 60.53204857 134.68427548 62.76905951 134.68874359 65.006073 C134.7024272 72.01132655 134.7120874 79.01656838 134.71594548 86.02183437 C134.72041667 94.0955806 134.73791706 102.16915673 134.76694608 110.24285126 C134.78862085 116.48928418 134.79865298 122.73566948 134.7999866 128.98213959 C134.80103128 132.70933061 134.80686564 136.43636192 134.82480621 140.16351318 C134.84447297 144.33079178 134.83997494 148.49771903 134.83349609 152.66503906 C134.84271088 153.88829391 134.85192566 155.11154877 134.86141968 156.37187195 C134.80489432 168.01123991 132.62791962 176.64695005 124.47705078 185.16113281 C114.7929843 194.26203471 105.75244104 195.61187001 92.74658203 195.54931641 C91.38056012 195.55338904 90.01454151 195.55873478 88.64852905 195.56524658 C84.96254161 195.57884396 81.27680799 195.57365318 77.5908165 195.56410933 C73.71931055 195.55647317 69.84782523 195.56356926 65.97631836 195.56826782 C59.47684865 195.57371392 52.97748146 195.56656397 46.47802734 195.55224609 C38.98154769 195.53592174 31.48531288 195.54121107 23.98883915 195.55772531 C17.53334755 195.57137296 11.07792932 195.57324386 4.62242794 195.5654093 C0.77523223 195.56075075 -3.07184869 195.56005754 -6.91903687 195.57001877 C-10.53727968 195.57873412 -14.15520918 195.57258406 -17.77341843 195.555336 C-19.72179493 195.54952715 -21.67019817 195.55834757 -23.61856079 195.56771851 C-35.17179867 195.4847062 -43.02759454 193.12753145 -51.52294922 185.16113281 C-60.36430695 175.86788346 -62.12328809 165.01740162 -62.04052734 152.59912109 C-62.04753662 151.28881424 -62.0545459 149.97850739 -62.06176758 148.62849426 C-62.07984162 145.06885216 -62.07300324 141.50967906 -62.06025124 137.95002985 C-62.05005288 134.21145615 -62.05953455 130.47291992 -62.0657959 126.73434448 C-62.07304716 120.46540174 -62.06354558 114.19664831 -62.04443359 107.92773438 C-62.02261244 100.68668031 -62.029764 93.44607589 -62.05173922 86.20503247 C-62.06989742 79.9711994 -62.07245125 73.73750151 -62.06198454 67.50365055 C-62.05575918 63.78736358 -62.05488856 60.07128806 -62.06813049 56.3550148 C-62.08184405 52.21866458 -62.06283287 48.08309004 -62.04052734 43.94677734 C-62.04862427 42.71968552 -62.05672119 41.49259369 -62.06506348 40.22831726 C-61.98210647 31.94028225 -61.98210647 31.94028225 -59.61560059 27.92453003 C-55.62336051 24.56042211 -52.01884086 25.0320158 -47.01513672 25.06347656 C-45.754207 25.06559898 -45.754207 25.06559898 -44.46780396 25.06776428 C-41.77781647 25.07337044 -39.08791163 25.08592395 -36.39794922 25.09863281 C-34.57633584 25.10364702 -32.75472115 25.10821006 -30.93310547 25.11230469 C-26.46302145 25.12334187 -21.99299935 25.14061062 -17.52294922 25.16113281 C-17.55775391 24.14792969 -17.59255859 23.13472656 -17.62841797 22.09082031 C-17.65657517 20.73927451 -17.68387325 19.38771063 -17.71044922 18.03613281 C-17.73558594 17.37097656 -17.76072266 16.70582031 -17.78662109 16.02050781 C-17.86801599 10.48565459 -16.54737813 6.60731774 -13.02294922 2.34863281 C-9.23573641 -0.64957733 -4.56896694 0.00620647 0 0 Z M-3.52294922 14.16113281 C-3.52294922 17.79113281 -3.52294922 21.42113281 -3.52294922 25.16113281 C22.87705078 25.16113281 49.27705078 25.16113281 76.47705078 25.16113281 C76.47705078 21.53113281 76.47705078 17.90113281 76.47705078 14.16113281 C50.07705078 14.16113281 23.67705078 14.16113281 -3.52294922 14.16113281 Z " fill="#B1FCAD" transform="translate(63.52294921875,1.8388671875)"/>
<path d="M0 0 C6.65520649 1.15803383 13.53310977 5.88873732 17.6875 11.125 C19.79989275 13.30146057 19.79989275 13.30146057 21.96875 12.921875 C23.49814857 12.54491056 25.0190863 12.132454 26.53125 11.69140625 C32.18591533 10.28646625 38.3761027 10.34777086 43.9375 12.125 C47.4084917 13.16629751 48.65430589 13.13479741 52.0625 12.0625 C54.82235161 10.10660864 54.82235161 10.10660864 57.5 7.6875 C61.81768249 3.91643734 65.92527573 0.50025222 71.75 -0.3125 C74.0625 0.0625 74.0625 0.0625 75.8125 1.125 C79.90815966 7.47327247 78.43567692 18.34810445 78.66796875 25.609375 C78.72404297 27.17171875 78.72404297 27.17171875 78.78125 28.765625 C78.81154297 29.71083008 78.84183594 30.65603516 78.87304688 31.62988281 C78.97482423 34.2021599 78.97482423 34.2021599 80.0625 37.0625 C80.13220052 39.45740986 80.14698003 41.85417691 80.125 44.25 C80.11597656 45.52230469 80.10695313 46.79460937 80.09765625 48.10546875 C80.08605469 49.08128906 80.07445312 50.05710938 80.0625 51.0625 C84.3525 51.0625 88.6425 51.0625 93.0625 51.0625 C93.0625 51.7225 93.0625 52.3825 93.0625 53.0625 C88.4425 53.0625 83.8225 53.0625 79.0625 53.0625 C78.7325 54.7125 78.4025 56.3625 78.0625 58.0625 C83.0125 58.0625 87.9625 58.0625 93.0625 58.0625 C93.0625 58.7225 93.0625 59.3825 93.0625 60.0625 C87.4525 60.0625 81.8425 60.0625 76.0625 60.0625 C75.4025 61.7125 74.7425 63.3625 74.0625 65.0625 C72.44140625 67.265625 72.44140625 67.265625 70.625 69.3125 C70.02816406 69.99828125 69.43132812 70.6840625 68.81640625 71.390625 C67.0625 73.0625 67.0625 73.0625 64.0625 74.0625 C64.41183594 74.73796875 64.76117188 75.4134375 65.12109375 76.109375 C65.57613281 77.00140625 66.03117187 77.8934375 66.5 78.8125 C66.95246094 79.69421875 67.40492188 80.5759375 67.87109375 81.484375 C69.84084271 85.74678259 70.18084269 89.12171365 70.125 93.8125 C70.11597656 94.79734375 70.10695313 95.7821875 70.09765625 96.796875 C70.08605469 97.54453125 70.07445312 98.2921875 70.0625 99.0625 C71.09375 98.98 72.125 98.8975 73.1875 98.8125 C77.73095151 99.1056259 79.60411133 100.16710483 83.0625 103.0625 C85.41069342 106.05110981 85.49269162 109.28788391 85.3671875 113.0390625 C84.83539887 116.57068443 83.44130712 118.44581217 81.0625 121.0625 C75.43508179 124.88399403 70.3668478 125.64657349 63.6875 125.4375 C62.88183594 125.43621094 62.07617188 125.43492187 61.24609375 125.43359375 C55.34462691 125.34462691 55.34462691 125.34462691 53.0625 123.0625 C53.42522088 119.60554793 55.14747406 117.12617108 57 114.25 C62.43838899 105.26426855 63.79097891 95.49595843 61.38671875 85.15625 C60.6982665 83.09415605 59.89372594 81.07129601 59.0625 79.0625 C58.20011719 79.35125 57.33773437 79.64 56.44921875 79.9375 C41.39868429 84.51464247 26.82287185 84.99844846 12.0625 79.0625 C8.56307088 88.47763073 6.93182381 99.5331261 11.0625 109.0625 C12.52408575 111.42015331 14.0616185 113.66523305 15.72265625 115.88671875 C17.23319109 118.33968641 17.82948393 120.19497565 18.0625 123.0625 C17.4025 123.7225 16.7425 124.3825 16.0625 125.0625 C14.25 125.0625 14.25 125.0625 12.0625 124.0625 C3.84157376 115.84157376 0.82723865 106.28634047 0.80932617 94.92431641 C0.9257397 87.22612264 2.61163844 80.42087365 7.0625 74.0625 C6.18658203 73.68738281 6.18658203 73.68738281 5.29296875 73.3046875 C2.76557949 71.89713972 1.26946046 70.36551311 -0.625 68.1875 C-1.22699219 67.50945312 -1.82898438 66.83140625 -2.44921875 66.1328125 C-3.9375 64.0625 -3.9375 64.0625 -4.9375 60.0625 C-10.5475 60.0625 -16.1575 60.0625 -21.9375 60.0625 C-21.9375 59.4025 -21.9375 58.7425 -21.9375 58.0625 C-16.9875 58.0625 -12.0375 58.0625 -6.9375 58.0625 C-7.2675 56.7425 -7.5975 55.4225 -7.9375 54.0625 C-14.8675 53.5675 -14.8675 53.5675 -21.9375 53.0625 C-21.9375 52.4025 -21.9375 51.7425 -21.9375 51.0625 C-17.6475 51.0625 -13.3575 51.0625 -8.9375 51.0625 C-8.97875 49.020625 -9.02 46.97875 -9.0625 44.875 C-9.1887736 38.62445685 -9.1887736 38.62445685 -7.9296875 35.80859375 C-6.05179308 30.61111432 -6.86756773 24.89300063 -7.015625 19.4296875 C-7.11345595 13.47830484 -6.96427802 7.72684412 -4.9375 2.0625 C-2.9375 0.0625 -2.9375 0.0625 0 0 Z " fill="#B4FEAD" transform="translate(62.9375,49.9375)"/>
<path d="M0 0 C6.65520649 1.15803383 13.53310977 5.88873732 17.6875 11.125 C19.79989275 13.30146057 19.79989275 13.30146057 21.96875 12.921875 C23.49814857 12.54491056 25.0190863 12.132454 26.53125 11.69140625 C32.18591533 10.28646625 38.3761027 10.34777086 43.9375 12.125 C47.4084917 13.16629751 48.65430589 13.13479741 52.0625 12.0625 C54.82235161 10.10660864 54.82235161 10.10660864 57.5 7.6875 C61.81768249 3.91643734 65.92527573 0.50025222 71.75 -0.3125 C74.0625 0.0625 74.0625 0.0625 75.8125 1.125 C79.90815966 7.47327247 78.43567692 18.34810445 78.66796875 25.609375 C78.72404297 27.17171875 78.72404297 27.17171875 78.78125 28.765625 C78.81154297 29.71083008 78.84183594 30.65603516 78.87304688 31.62988281 C78.97482423 34.2021599 78.97482423 34.2021599 80.0625 37.0625 C80.13220052 39.45740986 80.14698003 41.85417691 80.125 44.25 C80.11597656 45.52230469 80.10695313 46.79460937 80.09765625 48.10546875 C80.08605469 49.08128906 80.07445312 50.05710938 80.0625 51.0625 C84.3525 51.0625 88.6425 51.0625 93.0625 51.0625 C93.0625 51.7225 93.0625 52.3825 93.0625 53.0625 C88.4425 53.0625 83.8225 53.0625 79.0625 53.0625 C78.7325 54.7125 78.4025 56.3625 78.0625 58.0625 C83.0125 58.0625 87.9625 58.0625 93.0625 58.0625 C93.0625 58.7225 93.0625 59.3825 93.0625 60.0625 C87.4525 60.0625 81.8425 60.0625 76.0625 60.0625 C75.4025 61.7125 74.7425 63.3625 74.0625 65.0625 C72.44140625 67.265625 72.44140625 67.265625 70.625 69.3125 C70.02816406 69.99828125 69.43132812 70.6840625 68.81640625 71.390625 C67.0625 73.0625 67.0625 73.0625 64.0625 74.0625 C64.41183594 74.73796875 64.76117188 75.4134375 65.12109375 76.109375 C65.57613281 77.00140625 66.03117187 77.8934375 66.5 78.8125 C66.95246094 79.69421875 67.40492188 80.5759375 67.87109375 81.484375 C69.84084271 85.74678259 70.18084269 89.12171365 70.125 93.8125 C70.11597656 94.79734375 70.10695313 95.7821875 70.09765625 96.796875 C70.08605469 97.54453125 70.07445312 98.2921875 70.0625 99.0625 C71.09375 98.98 72.125 98.8975 73.1875 98.8125 C77.73095151 99.1056259 79.60411133 100.16710483 83.0625 103.0625 C85.41069342 106.05110981 85.49269162 109.28788391 85.3671875 113.0390625 C84.83539887 116.57068443 83.44130712 118.44581217 81.0625 121.0625 C75.43508179 124.88399403 70.3668478 125.64657349 63.6875 125.4375 C62.88183594 125.43621094 62.07617188 125.43492187 61.24609375 125.43359375 C55.34462691 125.34462691 55.34462691 125.34462691 53.0625 123.0625 C53.42522088 119.60554793 55.14747406 117.12617108 57 114.25 C62.43838899 105.26426855 63.79097891 95.49595843 61.38671875 85.15625 C60.6982665 83.09415605 59.89372594 81.07129601 59.0625 79.0625 C58.20011719 79.35125 57.33773437 79.64 56.44921875 79.9375 C41.39868429 84.51464247 26.82287185 84.99844846 12.0625 79.0625 C8.56307088 88.47763073 6.93182381 99.5331261 11.0625 109.0625 C12.52408575 111.42015331 14.0616185 113.66523305 15.72265625 115.88671875 C17.23319109 118.33968641 17.82948393 120.19497565 18.0625 123.0625 C17.4025 123.7225 16.7425 124.3825 16.0625 125.0625 C14.25 125.0625 14.25 125.0625 12.0625 124.0625 C3.84157376 115.84157376 0.82723865 106.28634047 0.80932617 94.92431641 C0.9257397 87.22612264 2.61163844 80.42087365 7.0625 74.0625 C6.18658203 73.68738281 6.18658203 73.68738281 5.29296875 73.3046875 C2.76557949 71.89713972 1.26946046 70.36551311 -0.625 68.1875 C-1.22699219 67.50945312 -1.82898438 66.83140625 -2.44921875 66.1328125 C-3.9375 64.0625 -3.9375 64.0625 -4.9375 60.0625 C-10.5475 60.0625 -16.1575 60.0625 -21.9375 60.0625 C-21.9375 59.4025 -21.9375 58.7425 -21.9375 58.0625 C-16.9875 58.0625 -12.0375 58.0625 -6.9375 58.0625 C-7.2675 56.7425 -7.5975 55.4225 -7.9375 54.0625 C-14.8675 53.5675 -14.8675 53.5675 -21.9375 53.0625 C-21.9375 52.4025 -21.9375 51.7425 -21.9375 51.0625 C-17.6475 51.0625 -13.3575 51.0625 -8.9375 51.0625 C-8.97875 49.020625 -9.02 46.97875 -9.0625 44.875 C-9.1887736 38.62445685 -9.1887736 38.62445685 -7.9296875 35.80859375 C-6.05179308 30.61111432 -6.86756773 24.89300063 -7.015625 19.4296875 C-7.11345595 13.47830484 -6.96427802 7.72684412 -4.9375 2.0625 C-2.9375 0.0625 -2.9375 0.0625 0 0 Z M1.0625 8.0625 C-0.23185911 10.65121823 -0.01847298 12.47313324 0.03515625 15.3671875 C0.04740234 16.42550781 0.05964844 17.48382813 0.07226562 18.57421875 C0.10730043 20.80866053 0.14633505 23.04304333 0.18945312 25.27734375 C0.20041016 26.33824219 0.21136719 27.39914063 0.22265625 28.4921875 C0.24791382 29.94987549 0.24791382 29.94987549 0.27368164 31.43701172 C0.05319922 34.17813071 -0.61877101 35.68885123 -1.9375 38.0625 C-3.3180237 47.6199718 -1.41549395 55.16241782 4.0625 63.0625 C6.7808192 66.2338724 9.63497323 68.68410402 13.0625 71.0625 C13.805 71.58972656 14.5475 72.11695312 15.3125 72.66015625 C25.1545185 78.32247138 38.75585719 77.42897885 49.61328125 75.3984375 C59.3812365 72.22074343 66.01670469 66.15553384 70.96875 57.296875 C73.0125571 53.12166907 73.22562899 49.79849562 73.25 45.1875 C73.26417969 43.97320312 73.27835937 42.75890625 73.29296875 41.5078125 C73.26048062 38.16785011 73.26048062 38.16785011 72.06030273 35.71948242 C70.91453464 32.66849289 70.8338406 30.35679167 70.8671875 27.10546875 C70.87363281 25.99365234 70.88007813 24.88183594 70.88671875 23.73632812 C70.91185547 22.0105957 70.91185547 22.0105957 70.9375 20.25 C70.94652344 19.08017578 70.95554687 17.91035156 70.96484375 16.70507812 C70.98836268 13.82400947 71.02123148 10.94336011 71.0625 8.0625 C63.89959128 9.63528069 57.84478298 15.66314825 53.0625 21.0625 C53.0625 21.7225 53.0625 22.3825 53.0625 23.0625 C52.53140625 22.78535156 52.0003125 22.50820312 51.453125 22.22265625 C50.74671875 21.86042969 50.0403125 21.49820313 49.3125 21.125 C48.61640625 20.76535156 47.9203125 20.40570313 47.203125 20.03515625 C40.56500068 17.01892823 32.43808743 16.90655945 25.625 19.4375 C21.80094388 21.16416071 21.80094388 21.16416071 18.0625 23.0625 C17.83175781 22.49789062 17.60101563 21.93328125 17.36328125 21.3515625 C15.72441556 18.46755261 13.71738986 16.64964263 11.25 14.4375 C10.39792969 13.66148438 9.54585937 12.88546875 8.66796875 12.0859375 C6.16764074 10.14415352 4.04727894 9.05921254 1.0625 8.0625 Z " fill="#88D042" transform="translate(62.9375,49.9375)"/>
<path d="M0 0 C1.30534195 -0.00744736 1.30534195 -0.00744736 2.63705444 -0.01504517 C5.51862374 -0.02966164 8.40013799 -0.03646767 11.28173828 -0.04199219 C13.2832947 -0.04774372 15.28485109 -0.05350145 17.28640747 -0.05926514 C21.48456072 -0.06977342 25.68269482 -0.07561733 29.88085938 -0.07910156 C35.26008426 -0.08458829 40.63905628 -0.10862091 46.01820183 -0.13707352 C50.15317525 -0.1556966 54.2880877 -0.16090531 58.42309952 -0.16243744 C60.40623483 -0.16546484 62.38936905 -0.17349632 64.37246323 -0.18662262 C67.14694219 -0.20367738 69.92080238 -0.20180434 72.6953125 -0.1953125 C73.51418945 -0.20452728 74.33306641 -0.21374207 75.17675781 -0.22323608 C79.78165307 -0.18948382 82.7229912 0.21011193 86.47705078 3.16113281 C90.29103924 7.65085347 91.04326003 11.24198622 90.78955078 16.97363281 C90.77118164 17.6777832 90.7528125 18.38193359 90.73388672 19.10742188 C90.67158512 21.12617967 90.57521292 23.14380073 90.47705078 25.16113281 C90.44482422 26.11890625 90.41259766 27.07667969 90.37939453 28.06347656 C90.15394379 31.53773033 89.70499006 33.82736459 87.72705078 36.72363281 C85.00024104 38.46576126 83.65381364 38.73132102 80.47705078 38.16113281 C78.42572546 36.57284938 77.58619699 35.60771577 76.96533203 33.06738281 C76.90732422 32.27332031 76.84931641 31.47925781 76.78955078 30.66113281 C76.72380859 29.88769531 76.65806641 29.11425781 76.59033203 28.31738281 C76.42107451 23.60151817 76.47705078 18.88003389 76.47705078 14.16113281 C50.07705078 14.16113281 23.67705078 14.16113281 -3.52294922 14.16113281 C-3.52294922 17.79113281 -3.52294922 21.42113281 -3.52294922 25.16113281 C-4.13105733 34.76924092 -4.13105733 34.76924092 -7.52294922 38.16113281 C-10.89794922 37.84863281 -10.89794922 37.84863281 -14.52294922 37.16113281 C-19.17758921 30.17917283 -18.27132029 18.25957689 -17.52294922 10.16113281 C-16.00406046 6.58924057 -14.59926055 3.59654595 -11.52294922 1.16113281 C-7.6669186 -0.12421073 -4.01900534 0.0054594 0 0 Z " fill="#CFFFC1" transform="translate(63.52294921875,1.8388671875)"/>
<path d="M0 0 C1.67542976 0.28604898 3.34385343 0.61781233 5 1 C5.84137043 3.8937133 6.6733036 6.78959397 7.5 9.6875 C7.73847656 10.50412109 7.97695312 11.32074219 8.22265625 12.16210938 C10.51576805 20.25351817 10.51576805 20.25351817 10 24 C9.34 24.66 8.68 25.32 8 26 C5.375 25.625 5.375 25.625 3 25 C2.12785392 21.94233206 1.28054142 18.87830844 0.4375 15.8125 C0.19064453 14.94818359 -0.05621094 14.08386719 -0.31054688 13.19335938 C-2.5085341 5.11343451 -2.5085341 5.11343451 -1 1 C-0.67 0.67 -0.34 0.34 0 0 Z " fill="#89D146" transform="translate(84,149)"/>
<path d="M0 0 C1.67542976 0.28604898 3.34385343 0.61781233 5 1 C5.95779824 4.05558695 5.99113475 6.10849156 5.29296875 9.22265625 C5.11830078 10.00833984 4.94363281 10.79402344 4.76367188 11.60351562 C4.57353516 12.41498047 4.38339844 13.22644531 4.1875 14.0625 C4.00896484 14.87783203 3.83042969 15.69316406 3.64648438 16.53320312 C2.79401338 20.27853596 2.16708327 22.7493751 0 26 C-1.65 25.67 -3.3 25.34 -5 25 C-5.20400323 19.14971371 -4.58102948 14.20050045 -3.0625 8.5625 C-2.78889648 7.48452148 -2.78889648 7.48452148 -2.50976562 6.38476562 C-1.15055006 1.15055006 -1.15055006 1.15055006 0 0 Z " fill="#89D144" transform="translate(109,149)"/>
<path d="M0 0 C2.32528287 2.32528287 2.29511025 2.84665898 2.3125 6 C2.32925781 6.70125 2.34601563 7.4025 2.36328125 8.125 C2.18345703 9.053125 2.18345703 9.053125 2 10 C-1.70415293 12.46943529 -3.62144505 12.46913089 -8 12 C-10 10.375 -10 10.375 -11 8 C-10.87230149 4.87138639 -10.44822217 2.77193818 -8.875 0.0625 C-5.80365094 -1.67793113 -3.31631617 -0.78385655 0 0 Z " fill="#88D044" transform="translate(121,95)"/>
<path d="M0 0 C1.9375 1.125 1.9375 1.125 3 3 C2.875 6.5625 2.875 6.5625 2 10 C-1.46923881 12.31282587 -2.92205575 12.42478586 -7 12 C-8.875 10.9375 -8.875 10.9375 -10 9 C-10.4375 5.5 -10.4375 5.5 -10 2 C-7.00946104 -1.68066334 -4.3259629 -1.28858469 0 0 Z " fill="#88D043" transform="translate(84,95)"/>
<path d="M0 0 C3.625 0.375 3.625 0.375 7 1 C7.33 3.31 7.66 5.62 8 8 C3.28840397 11.73678306 -0.01903338 12.11284843 -6 12 C-5.38144369 10.3725363 -4.75492695 8.74809644 -4.125 7.125 C-3.77695313 6.22007812 -3.42890625 5.31515625 -3.0703125 4.3828125 C-2 2 -2 2 0 0 Z " fill="#B1FBA8" transform="translate(133,156)"/>
<path d="M0 0 C2.97 0 5.94 0 9 0 C9.6875 2.3125 9.6875 2.3125 10 5 C8.5625 6.625 8.5625 6.625 7 8 C7 8.99 7 9.98 7 11 C7.99 11.33 8.98 11.66 10 12 C10 12.66 10 13.32 10 14 C6.37 14 2.74 14 -1 14 C-1 13.34 -1 12.68 -1 12 C-0.01 11.67 0.98 11.34 2 11 C1.42655063 8.13275314 1.1385485 7.1385485 -1 5 C-0.625 2.375 -0.625 2.375 0 0 Z " fill="#89D045" transform="translate(94,103)"/>
</svg>
