<?xml version="1.0" encoding="UTF-8"?>
<svg version="1.1" xmlns="http://www.w3.org/2000/svg" width="512" height="512">
<path d="M0 0 C1.23201739 -0.00298631 1.23201739 -0.00298631 2.48892403 -0.00603294 C3.39041018 -0.00312028 4.29189634 -0.00020761 5.22070026 0.00279331 C6.17649982 0.00193729 7.13229939 0.00108128 8.11706257 0.00019932 C11.34387265 -0.0014616 14.57063134 0.00407707 17.79743671 0.00952244 C20.1406822 0.00982863 22.48392779 0.00969553 24.82717323 0.00915718 C31.11719816 0.0089309 37.40720416 0.01473779 43.69722462 0.02176762 C49.59386983 0.02745147 55.49051039 0.02773013 61.38715839 0.02844334 C78.64607205 0.03369615 95.90498216 0.04765723 113.16389179 0.06054783 C170.98607929 0.09148533 170.98607929 0.09148533 229.97639179 0.12304783 C229.97639179 127.50304783 229.97639179 254.88304783 229.97639179 386.12304783 C200.27639179 386.12304783 170.57639179 386.12304783 139.97639179 386.12304783 C139.97639179 396.02304783 139.97639179 405.92304783 139.97639179 416.12304783 C116.21639179 416.12304783 92.45639179 416.12304783 67.97639179 416.12304783 C67.97639179 406.22304783 67.97639179 396.32304783 67.97639179 386.12304783 C5.93639179 386.12304783 -56.10360821 386.12304783 -120.02360821 386.12304783 C-120.02360821 396.02304783 -120.02360821 405.92304783 -120.02360821 416.12304783 C-144.11360821 416.12304783 -168.20360821 416.12304783 -193.02360821 416.12304783 C-193.02360821 406.22304783 -193.02360821 396.32304783 -193.02360821 386.12304783 C-222.39360821 386.12304783 -251.76360821 386.12304783 -282.02360821 386.12304783 C-282.13389019 346.5803412 -282.22618988 307.03777992 -282.27893486 267.49496345 C-282.28518819 262.82379079 -282.29165982 258.15261845 -282.29826641 253.48144627 C-282.29957796 252.55152218 -282.30088952 251.6215981 -282.30224081 250.6634945 C-282.32398176 235.61747685 -282.36339606 220.57155497 -282.40937219 205.52559409 C-282.45617331 190.08053263 -282.48391133 174.63552124 -282.49405068 159.19039178 C-282.50090226 149.66423244 -282.52252165 140.13834385 -282.56319054 130.61226788 C-282.58967406 124.07484518 -282.59759654 117.53756191 -282.59111509 111.0000895 C-282.58792088 107.23142143 -282.5927258 103.4632256 -282.61963558 99.69464207 C-282.64866043 95.59973221 -282.63850223 91.50581857 -282.62488079 87.41082859 C-282.6467271 85.64229593 -282.6467271 85.64229593 -282.66901475 83.83803535 C-282.56164617 71.85886161 -278.5794754 62.82404228 -270.25407696 54.29492283 C-269.14999493 53.2198447 -269.14999493 53.2198447 -268.02360821 52.12304783 C-267.50411602 51.57132908 -266.98462383 51.01961033 -266.44938946 50.45117283 C-262.72014066 46.81001653 -258.22992303 44.41196058 -253.64860821 41.99804783 C-252.75903423 41.5105405 -252.75903423 41.5105405 -251.85148907 41.01318455 C-237.93277823 34.02808333 -222.76740936 33.54619836 -207.55070782 33.66894627 C-205.55807805 33.67007754 -203.56544661 33.66943544 -201.5728178 33.66717625 C-196.21847328 33.66603909 -190.86449482 33.68938497 -185.51023459 33.71747208 C-179.89423356 33.74265394 -174.27822206 33.74484086 -168.66217327 33.74957371 C-158.0520356 33.76195451 -147.44206484 33.79470924 -136.83200032 33.83497167 C-124.74237968 33.87984258 -112.65275063 33.90171479 -100.56306732 33.92175341 C-75.71648879 33.96344669 -50.8700579 34.03370259 -26.02360821 34.12304783 C-26.03172024 33.5086182 -26.03983227 32.89418858 -26.04819012 32.26113987 C-26.05449947 31.45325016 -26.06080883 30.64536045 -26.06730938 29.81298923 C-26.07542141 29.01293461 -26.08353344 28.21287998 -26.09189129 27.38858128 C-25.87883608 20.31971897 -22.13284949 12.04806166 -17.02360821 7.12304783 C-11.73947968 3.38859161 -6.62119394 -0.00354264 0 0 Z " fill="#FED222" transform="translate(282.02360820770264,47.876952171325684)"/>
<path d="M0 0 C109.56 0 219.12 0 332 0 C332 70.29 332 140.58 332 213 C308.24 213 284.48 213 260 213 C260 203.1 260 193.2 260 183 C197.96 183 135.92 183 72 183 C72 192.9 72 202.8 72 213 C47.91 213 23.82 213 -1 213 C-1 178.51223967 -1 178.51223967 -0.90820312 162.79541016 C-0.89812034 160.95950547 -0.88811077 159.12360037 -0.8781662 157.28769493 C-0.85195714 152.48481707 -0.82477997 147.6819452 -0.79736328 142.8790741 C-0.77154844 138.32913527 -0.74665862 133.77919154 -0.72167969 129.22924805 C-0.64868937 116.02782701 -0.57426182 102.82641395 -0.5 89.625 C-0.335 60.04875 -0.17 30.4725 0 0 Z " fill="#2681FE" transform="translate(90,251)"/>
<path d="M0 0 C84.48 0 168.96 0 256 0 C256 38.94 256 77.88 256 118 C310.78 118 365.56 118 422 118 C422 118.33 422 118.66 422 119 C312.44 119 202.88 119 90 119 C90 179.39 90 239.78 90 302 C60.3 302 30.6 302 0 302 C0 202.34 0 102.68 0 0 Z " fill="#FEDC55" transform="translate(0,132)"/>
<path d="M0 0 C54.78 0 109.56 0 166 0 C166 70.29 166 140.58 166 213 C142.24 213 118.48 213 94 213 C94 165.81 94 118.62 94 70 C62.98 70 31.96 70 0 70 C0 46.9 0 23.8 0 0 Z " fill="#005FDF" transform="translate(256,251)"/>
<path d="M0 0 C62.04 0 124.08 0 188 0 C188 36.96 188 73.92 188 112 C125.96 112 63.92 112 0 112 C0 75.04 0 38.08 0 0 Z " fill="#FFD322" transform="translate(162,322)"/>
<path d="M0 0 C1.99262977 0.00113127 3.9852612 0.00048917 5.97789001 -0.00177002 C11.33223453 -0.00290718 16.686213 0.0204387 22.04047322 0.04852581 C27.65647426 0.07370767 33.27248576 0.0758946 38.88853455 0.08062744 C49.49867222 0.09300825 60.10864298 0.12576298 70.7187075 0.1660254 C82.80832814 0.21089631 94.89795718 0.23276852 106.9876405 0.25280714 C131.83424042 0.29450046 156.68061185 0.367791 181.52709961 0.45410156 C181.52709961 16.62410156 181.52709961 32.79410156 181.52709961 49.45410156 C97.04709961 49.45410156 12.56709961 49.45410156 -74.47290039 49.45410156 C-74.47290039 37.00601048 -71.37011355 29.50479465 -62.70336914 20.62597656 C-61.96731445 19.90925781 -61.23125977 19.19253906 -60.47290039 18.45410156 C-59.9534082 17.90238281 -59.43391602 17.35066406 -58.89868164 16.78222656 C-55.16943285 13.14107026 -50.67921521 10.74301432 -46.09790039 8.32910156 C-45.20832642 7.84159424 -45.20832642 7.84159424 -44.30078125 7.34423828 C-30.38207042 0.35913707 -15.21670154 -0.12274791 0 0 Z " fill="#EDBE00" transform="translate(74.472900390625,81.5458984375)"/>
<path d="M0 0 C31.02 0 62.04 0 94 0 C94 36.96 94 73.92 94 112 C62.98 112 31.96 112 0 112 C0 75.04 0 38.08 0 0 Z " fill="#FFDC54" transform="translate(162,322)"/>
</svg>
